#!OML:ASF F:\VICON\USERDATA\INSTALL\rory3\rory3.ASF
:FULLY-SPECIFIED
:DEGREES
581
root -0.553845 15.8626 12.3823 249.196 78.2937 -487.051
lowerback -8.15901 4.81319 2.98824
upperback -11.1294 7.07139 0.296681
thorax -6.87255 3.64039 -1.21903
lowerneck -12.6575 -7.45594 -7.7742
upperneck 26.34 -9.95331 6.41473
head 11.3754 -4.30633 2.31539
rclavicle -2.5842e-014 1.59028e-015
rhumerus 5.48431 -297.46 -424.297
rradius 117.735
rwrist -64.4821
rhand 11.7093 8.10206
rfingers 7.12502
rthumb 36.7457 -18.0277
lclavicle -2.5842e-014 1.59028e-015
lhumerus -47.2676 -53.2214 73.2201
lradius 111.286
lwrist 82.5876
lhand 28.9355 21.0293
lfingers 7.12502
lthumb 52.7474 40.6803
rfemur -64.3578 0.77999 390.262
rtibia 46.4608
rfoot 163.265 146.846
rtoes 41.8806
lfemur -36.3617 0.990202 -19.4206
ltibia 56.2657
lfoot -221.644 -157.872
ltoes -13.3487
582
root -0.580998 15.8195 12.4995 262.558 77.8512 -473.194
lowerback -7.54503 4.59533 4.36233
upperback -10.8499 6.74997 0.998277
thorax -6.87005 3.3895 -1.28555
lowerneck -12.4801 -7.90412 -7.70607
upperneck 26.0132 -10.6469 6.40467
head 11.2697 -4.64145 2.19514
rclavicle 2.18663e-015 1.59028e-015
rhumerus 2.53297 -298.807 -427.955
rradius 116.894
rwrist -68.5403
rhand 11.9874 7.654
rfingers 7.12502
rthumb 37.0088 -18.4082
lclavicle 2.18663e-015 1.59028e-015
lhumerus -48.1652 -51.7839 73.8954
lradius 110.743
lwrist 82.5692
lhand 27.5209 20.4538
lfingers 7.12502
lthumb 51.465 40.8719
rfemur -63.6262 2.08671 391.25
rtibia 46.1852
rfoot 160.783 145.376
rtoes 42.2379
lfemur -36.5887 2.76736 -17.4677
ltibia 57.2935
lfoot -222.638 -158.612
ltoes -10.7617
583
root -0.586274 15.774 12.6399 275.035 78.2998 -460.37
lowerback -7.32206 4.35541 3.87214
upperback -10.5208 6.40923 1.39905
thorax -6.73917 3.25497 -0.612809
lowerneck -12.2347 -8.3672 -8.29045
upperneck 25.8168 -11.3346 6.85368
head 11.2759 -4.97825 2.35228
rclavicle 1.89839e-014 -3.26007e-014
rhumerus -0.739868 -300.182 -431.548
rradius 116.05
rwrist -72.5143
rhand 11.9773 7.11221
rfingers 7.12502
rthumb 36.9993 -18.9524
lclavicle 1.89839e-014 -3.26007e-014
lhumerus -49.6918 -51.0558 75.5558
lradius 110.224
lwrist 81.8915
lhand 30.9492 21.2919
lfingers 7.12502
lthumb 54.5583 39.7454
rfemur -63.2771 4.52842 389.746
rtibia 46.1155
rfoot 162.029 141.942
rtoes 36.6029
lfemur -36.5937 4.84226 -17.2057
ltibia 58.0085
lfoot -223.484 -159.307
ltoes -8.04772
584
root -0.625528 15.7385 12.6184 295.929 80.5723 -440.495
lowerback -8.0659 4.65009 2.97927
upperback -10.5147 6.70639 0.386838
thorax -6.26595 3.42111 -1.09418
lowerneck -12.118 -8.91168 -9.09368
upperneck 25.5725 -12.1175 7.43525
head 11.3333 -5.36189 2.56968
rclavicle -2.77305e-014 -1.35174e-014
rhumerus -3.99615 -302.166 -434.867
rradius 115.041
rwrist -76.1949
rhand 12.5208 7.02799
rfingers 7.12502
rthumb 37.5131 -18.9021
lclavicle -2.77305e-014 -1.35174e-014
lhumerus -50.1896 -50.4514 76.7429
lradius 109.356
lwrist 81.5753
lhand 29.3999 20.0128
lfingers 7.12502
lthumb 53.1666 39.3991
rfemur -65.0751 2.95286 387.801
rtibia 46.1285
rfoot 167.369 141.78
rtoes 31.0107
lfemur -37.7533 6.29833 -20.6181
ltibia 58.3656
lfoot -224.694 -158.991
ltoes -4.98147
585
root -0.657624 15.7133 12.6525 315.471 80.5006 -421.581
lowerback -8.40614 4.86318 2.4606
upperback -10.5277 6.95905 -0.034075
thorax -6.08299 3.56314 -1.20434
lowerneck -11.7545 -9.46665 -9.65196
upperneck 25.1658 -12.9249 7.82907
head 11.2618 -5.76417 2.68236
rclavicle 1.59425e-013 8.0309e-014
rhumerus -7.29433 -304.444 -437.811
rradius 113.937
rwrist -79.7657
rhand 13.4294 7.02495
rfingers 7.12502
rthumb 38.3712 -18.6723
lclavicle 1.59425e-013 8.0309e-014
lhumerus -50.4007 -50.1705 77.9185
lradius 108.294
lwrist 81.6128
lhand 28.9039 19.4405
lfingers 7.12502
lthumb 52.7188 39.1093
rfemur -66.0024 2.5403 386.459
rtibia 46.1375
rfoot 162.473 142.847
rtoes 37.9156
lfemur -38.6578 7.98568 -22.2291
ltibia 58.7161
lfoot -225.381 -159.397
ltoes -2.18656
